<mxfile host="app.diagrams.net" modified="2021-05-06T10:12:56.024Z" agent="5.0 (Windows NT 10.0; Win64; x64) AppleWebKit/537.36 (KHTML, like Gecko) Chrome/90.0.4430.93 Safari/537.36 Edg/90.0.818.51" etag="Zy7sYcHp7RFp3GSg-JnO" version="14.6.9" type="github">
  <diagram id="YhWdgm1e61Hx2CCkoLfR" name="Page-1">
    <mxGraphModel dx="2216" dy="964" grid="1" gridSize="10" guides="1" tooltips="1" connect="1" arrows="1" fold="1" page="1" pageScale="1" pageWidth="850" pageHeight="1100" math="0" shadow="0">
      <root>
        <mxCell id="0" />
        <mxCell id="1" parent="0" />
      </root>
    </mxGraphModel>
  </diagram>
</mxfile>
